# xmcd
#
# Track frame offsets:
#	150
#	11871
#	24771
#	38346
#	52242
#	67151
#	80380
#	92139
#	106208
#	120272
#	133033
#	144721
#	159621
#	173204
#	184633
#	197470
#	209596
#	222670
#	234979
#	249178
#	264293
#	277354
#	288672
#	303537
#	314804
#	329110
#	343578
#
# Disc length: 4757 seconds
#
# Revision: 1
# Processed by: cddbd v1.5.2PL0 Copyright (c) Steve Scherf et al.
# Submitted via: audiograbber 1.83.01
#
DISCID=9f12931b
DTITLE=Various Artist - Early Vocal Group Harmony - Vol. 3 (1940-1954)
DYEAR=1900
DGENRE=Vocal
TTITLE0=Dandridge Sisters (with the Jimmie Lunceford Orchestra) - Red Wagon (Co
TTITLE0=lumbia, 1940)
TTITLE1=Five Breezes - My Buddy Blues (Bluebird, 1941)
TTITLE2=Billy Eckstein, Madeline Greene and the Three Varieties - I Got It Bad an
TTITLE2=d That Ain't Good (Bluebird, 1941)
TTITLE3=Thelma Carpenter and the Deep River Boys - My Guy's Come Back (Majestic, 
TTITLE3=1945)
TTITLE4=Ella Fitzgerald and the Delta Rhythm Boys - I Love You For Sentimental Re
TTITLE4=asons (Decca, 1946)
TTITLE5=Dallas Bartley and the Band That Comes On - The Band That Really Comes On
TTITLE5=(Cosmo, 1946)
TTITLE6=Dixieaires with Muriel Gaines - I Know That We Will Never Meet Again (Q
TTITLE6=ueen, 1946)
TTITLE7=Three Bits of Rhythm - That's the Boogie (Modern Music, 1946)
TTITLE8=Four Knights - Walkin' With My Shadow (Decca, 1946)
TTITLE9=Ginger Snaps - Low Down River Blues (University, 1947)
TTITLE10=Roy Milton and his Solid Senders - Them There Eyes (Roy Milton, 1947)
TTITLE11=Four Knights - Just In Case You Change Your Mind (Decca, 1947)
TTITLE12=Harmonaires - You Can Depend On Me (Majestic, 1948)
TTITLE13=Striders - Pleasin' You (As Long As I Live) (Capitol, 1948)
TTITLE14=Bill Mathews and the Ballardiers - Please Give My Heart a Break (Arlingt
TTITLE14=on, 1949)
TTITLE15=Syncopators - Mule Train (National, 1949)
TTITLE16=Lionel Hampton Orchestra with the Hamptones - Rag Mop (Decca, 1950)
TTITLE17=Colemans - I Don't Mind Being Alone (Regal, 1950)
TTITLE18=Marshall Brothers - Who'll Be the Fool From Now On (Savoy, 1951)
TTITLE19=Ruth Brown with the James Quintet - Have a Good Time (Atlantic, 1952)
TTITLE20=Bette McLaurin with the Striders - My Heart Belongs To Only You (Derby
TTITLE20=, 1952)
TTITLE21=Sarah McLawler (with vocal group) - Please Try to Love Me (King, 1952)
TTITLE22=Browley Guy and the Skyscrapers - Watermelon Man (Checker, 1953)
TTITLE23=Doris Browne (with vocal group) - Until the End Of Time (Gotham, 1953)
TTITLE24=Ebonaires - Baby, You're the Only One (Aladdin, 1953)
TTITLE25=Zilla Mays and the Blues Caravan - Why Do You Cry (Brunswick, 1954)
TTITLE26=Original Jubalaires - Waiting All My Life For You (Crown, 1954)
EXTD=
EXTT0=
EXTT1=
EXTT2=
EXTT3=
EXTT4=
EXTT5=
EXTT6=
EXTT7=
EXTT8=
EXTT9=
EXTT10=
EXTT11=
EXTT12=
EXTT13=
EXTT14=
EXTT15=
EXTT16=
EXTT17=
EXTT18=
EXTT19=
EXTT20=
EXTT21=
EXTT22=
EXTT23=
EXTT24=
EXTT25=
EXTT26=
PLAYORDER=
